<svg width="90" height="90" viewBox="0 0 90 90" fill="none" xmlns="http://www.w3.org/2000/svg">
<rect x="1.5" y="1.5" width="87" height="87" rx="21.5" stroke="black" stroke-width="3"/>
<path d="M46.7228 62V62.5H47.2228H58.8388C64.2847 62.5 68.593 60.9475 71.5381 57.9398C74.4816 54.9338 75.9948 50.5442 75.9948 45.008C75.9948 39.4453 74.4442 35.0312 71.4459 32.0079C68.4469 28.984 64.0678 27.42 58.5508 27.42H47.2228H46.7228V27.92V62ZM68.5628 45.008C68.5628 48.8344 67.7229 51.5819 66.1003 53.3723C64.4867 55.1528 62.0168 56.076 58.5508 56.076H53.9628V33.844H58.5508C62.0168 33.844 64.4859 34.7672 66.0993 36.5586C67.7223 38.3607 68.5628 41.1323 68.5628 45.008Z" fill="black" stroke="black"/>
<path d="M14.9122 50.4129L14.4028 50.4438L14.4441 50.9524C14.7414 54.6191 16.2208 57.7113 18.7507 59.8834C21.2778 62.053 24.8096 63.268 29.1504 63.268C33.0692 63.268 36.3801 62.2765 38.7232 60.4373C41.0786 58.5884 42.4184 55.9101 42.4184 52.64C42.4184 49.9793 41.6075 47.7227 39.5709 45.8903C37.5614 44.0824 34.4013 42.7268 29.787 41.7359C26.7561 41.0382 24.9261 40.4421 23.8503 39.7156C23.3271 39.3624 23.0003 38.9892 22.7981 38.5707C22.5938 38.1477 22.4984 37.6407 22.4984 36.992C22.4984 35.8252 22.9801 34.855 23.8659 34.1643C24.7629 33.4648 26.1085 33.028 27.8544 33.028C29.888 33.028 31.4405 33.6313 32.5329 34.6309C33.6277 35.6326 34.3049 37.0731 34.5098 38.8261L34.5639 39.2888L35.0293 39.2675L41.3173 38.9795L41.8495 38.9551L41.7915 38.4256C41.4205 35.0375 40.0675 32.0843 37.729 29.9785C35.3891 27.8713 32.1065 26.652 27.9504 26.652C24.0244 26.652 20.8283 27.7074 18.6046 29.5773C16.3729 31.454 15.1624 34.1174 15.1624 37.232C15.1624 40.1285 15.9954 42.2766 17.9828 43.9285C19.9279 45.5452 22.9328 46.645 27.1657 47.6071C30.6391 48.4217 32.6213 49.207 33.7351 50.066C34.28 50.4861 34.6076 50.9173 34.8044 51.3745C35.0033 51.8365 35.0824 52.3569 35.0824 52.976C35.0824 54.2843 34.5684 55.229 33.6274 55.8685C32.658 56.5272 31.1887 56.892 29.2464 56.892C26.9559 56.892 25.2498 56.3033 24.0451 55.241C22.8393 54.1777 22.0741 52.5854 21.7735 50.458L21.7089 50.001L21.2482 50.0289L14.9122 50.4129Z" fill="black" stroke="black"/>
</svg>
